<svg width="40" height="41" viewBox="0 0 40 41" fill="none" xmlns="http://www.w3.org/2000/svg">
<g clip-path="url(#clip0_2043_3706)">
<path d="M19.9999 23.4539C16.7199 23.4539 14.0479 20.7579 14.0479 17.4379C14.0479 14.1179 16.7199 11.4219 19.9999 11.4219C23.2799 11.4219 25.9519 14.1179 25.9519 17.4379C25.9519 20.7579 23.2799 23.4539 19.9999 23.4539ZM19.9999 13.0219C17.5999 13.0219 15.6479 15.0059 15.6479 17.4379C15.6479 19.8699 17.5999 21.8539 19.9999 21.8539C22.3999 21.8539 24.3519 19.8699 24.3519 17.4379C24.3519 15.0059 22.3999 13.0219 19.9999 13.0219Z" fill="#047E2E"/>
<path d="M30.832 33.8381H9.16797V28.9181C9.32797 26.2941 12.656 24.2781 16.752 24.2781H23.264C27.36 24.2781 30.688 26.2941 30.832 28.8781V33.8461V33.8381ZM10.768 32.2381H29.232V28.9181C29.144 27.4701 26.72 25.8701 23.256 25.8701H16.744C13.28 25.8701 10.856 27.4701 10.768 28.9581V32.2301V32.2381Z" fill="#047E2E"/>
<path d="M31.4799 26.1819C32.0319 26.9659 32.3679 27.8379 32.4159 28.7819V28.8299V28.8779V33.8459H32.4239H40.0159V29.8699C39.8879 27.8059 37.2239 26.1899 33.9439 26.1899H31.4639L31.4799 26.1819Z" fill="#D9ECE0"/>
<path d="M31.4797 26.1821C31.8317 26.6781 32.0877 27.2141 32.2477 27.7821H33.9597C36.4157 27.7821 38.3197 28.9021 38.4237 29.9181V32.2301H32.4317V33.8301H40.0237V29.8541C39.8957 27.7901 37.2317 26.1741 33.9517 26.1741H31.4717L31.4797 26.1821Z" fill="#047E2E"/>
<path d="M8.544 26.1819C7.992 26.9659 7.656 27.8379 7.608 28.7819V28.8299V28.8779V33.8459H7.6H0V29.8699C0.128 27.8059 2.792 26.1899 6.072 26.1899H8.552L8.544 26.1819Z" fill="#D9ECE0"/>
<path d="M8.544 26.1821C8.192 26.6781 7.936 27.2141 7.776 27.7821H6.064C3.608 27.7821 1.704 28.9021 1.6 29.9181V32.2301H7.592V33.8301H0V29.8541C0.128 27.7901 2.792 26.1741 6.072 26.1741H8.552L8.544 26.1821Z" fill="#047E2E"/>
<path d="M8.54423 24.1178C6.60823 24.1178 5.03223 22.5417 5.03223 20.6057C5.03223 18.6697 6.60823 17.0938 8.54423 17.0938C10.4802 17.0938 12.0562 18.6697 12.0562 20.6057C12.0562 22.5417 10.4802 24.1178 8.54423 24.1178Z" fill="#D9ECE0"/>
<path d="M8.54393 17.8859C10.0399 17.8859 11.2559 19.1019 11.2559 20.5979C11.2559 22.0939 10.0399 23.3099 8.54393 23.3099C7.04793 23.3099 5.83193 22.0939 5.83193 20.5979C5.83193 19.1019 7.04793 17.8859 8.54393 17.8859ZM8.54393 16.2859C6.16793 16.2859 4.23193 18.2219 4.23193 20.5979C4.23193 22.9739 6.16793 24.9099 8.54393 24.9099C10.9199 24.9099 12.8559 22.9739 12.8559 20.5979C12.8559 18.2219 10.9199 16.2859 8.54393 16.2859Z" fill="#047E2E"/>
<path d="M31.4798 24.1178C29.5438 24.1178 27.9678 22.5417 27.9678 20.6057C27.9678 18.6697 29.5438 17.0938 31.4798 17.0938C33.4158 17.0938 34.9918 18.6697 34.9918 20.6057C34.9918 22.5417 33.4158 24.1178 31.4798 24.1178Z" fill="#D9ECE0"/>
<path d="M31.48 17.8859C32.976 17.8859 34.192 19.1019 34.192 20.5979C34.192 22.0939 32.976 23.3099 31.48 23.3099C29.984 23.3099 28.768 22.0939 28.768 20.5979C28.768 19.1019 29.984 17.8859 31.48 17.8859ZM31.48 16.2859C29.104 16.2859 27.168 18.2219 27.168 20.5979C27.168 22.9739 29.104 24.9099 31.48 24.9099C33.856 24.9099 35.792 22.9739 35.792 20.5979C35.792 18.2219 33.856 16.2859 31.48 16.2859Z" fill="#047E2E"/>
</g>
<defs>
<clipPath id="clip0_2043_3706">
<rect width="40" height="40" fill="white" transform="translate(0 0.22998)"/>
</clipPath>
</defs>
</svg>
