<svg width="28" height="30" viewBox="0 0 28 30" fill="none" xmlns="http://www.w3.org/2000/svg">
<g clip-path="url(#clip0_1272_11205)">
<path d="M24.1825 25.134V11.6172H20.3297V25.134H18.6785V17.2492H14.8257V25.134H13.1745V14.4332H9.32165V25.134H7.67045V17.2492H3.81765V25.134H0.240051V26.2604H27.7601V25.134H24.1825ZM4.91845 25.134V18.3756H6.56965V25.134H4.91845ZM10.4225 25.134V15.5596H12.0737V25.134H10.4225ZM15.9265 25.134V18.3756H17.5777V25.134H15.9265ZM21.4305 25.134V12.7436H23.0817V25.134H21.4305Z" fill="#047E2E"/>
<path d="M24.182 4.29757V3.73438H21.2952C20.9925 3.73438 20.7448 3.98781 20.7448 4.29757C20.7448 4.60734 20.9925 4.86077 21.2952 4.86077H22.3024L16.6415 10.6533L11.2421 7.89079L4.11169 11.6839C3.842 11.8276 3.73742 12.1683 3.87777 12.4443C3.97684 12.6386 4.16673 12.7484 4.36763 12.7484C4.45294 12.7484 4.541 12.7287 4.62081 12.6836L11.2504 9.15518L16.859 12.0247L23.0785 5.6577V6.68836C23.0785 6.99812 23.3262 7.25156 23.6289 7.25156C23.9316 7.25156 24.1793 6.99812 24.1793 6.68836V4.30039L24.182 4.29757Z" fill="#047E2E"/>
<path d="M6.5721 18.375H4.9209V25.1334H6.5721V18.375Z" fill="#047E2E" fill-opacity="0.15"/>
<path d="M12.0741 15.5625H10.4229V25.1369H12.0741V15.5625Z" fill="#047E2E" fill-opacity="0.15"/>
<path d="M17.576 18.375H15.9248V25.1334H17.576V18.375Z" fill="#047E2E" fill-opacity="0.15"/>
<path d="M23.0819 12.7461H21.4307V25.1365H23.0819V12.7461Z" fill="#047E2E" fill-opacity="0.15"/>
</g>
<defs>
<clipPath id="clip0_1272_11205">
<rect width="27.52" height="28.16" fill="white" transform="translate(0.240234 0.917969)"/>
</clipPath>
</defs>
</svg>
