<svg width="32" height="32" viewBox="0 0 32 32" fill="none" xmlns="http://www.w3.org/2000/svg">
<path d="M29.0161 5.73102H10.7887L10.1726 5.13281H2.69501C1.70498 5.13281 0.900391 5.9374 0.900391 6.92743V29.0611H30.8107V9.91846V8.72205V7.52564C30.8107 6.53561 30.0061 5.73102 29.0161 5.73102ZM29.6143 27.8646H2.0968V6.92743C2.0968 6.59842 2.366 6.32922 2.69501 6.32922H9.68804L13.035 9.58048L13.382 9.91846H13.4627H13.8665H29.6143V27.8646ZM14.6591 8.72205H13.8665L12.0181 6.92743H29.0161C29.3451 6.92743 29.6143 7.19662 29.6143 7.52564V8.72205H14.6591Z" fill="#047E2E"/>
<mask id="path-2-inside-1_1272_11186" fill="white">
<path d="M15.7583 14.1055C14.5406 14.1055 13.3349 14.3453 12.21 14.8113C11.085 15.2772 10.0629 15.9602 9.20185 16.8212C8.34084 17.6822 7.65786 18.7044 7.19189 19.8294C6.72592 20.9543 6.48608 22.16 6.48608 23.3777H11.1222C11.1222 22.7688 11.2421 22.166 11.4751 21.6035C11.7081 21.041 12.0496 20.53 12.4801 20.0994C12.9106 19.6689 13.4216 19.3275 13.9841 19.0945C14.5466 18.8615 15.1495 18.7416 15.7583 18.7416V14.1055Z"/>
</mask>
<path d="M15.7583 14.1055C14.5406 14.1055 13.3349 14.3453 12.21 14.8113C11.085 15.2772 10.0629 15.9602 9.20185 16.8212C8.34084 17.6822 7.65786 18.7044 7.19189 19.8294C6.72592 20.9543 6.48608 22.16 6.48608 23.3777H11.1222C11.1222 22.7688 11.2421 22.166 11.4751 21.6035C11.7081 21.041 12.0496 20.53 12.4801 20.0994C12.9106 19.6689 13.4216 19.3275 13.9841 19.0945C14.5466 18.8615 15.1495 18.7416 15.7583 18.7416V14.1055Z" fill="#047E2E" fill-opacity="0.15" stroke="#047E2E" stroke-width="2.39283" mask="url(#path-2-inside-1_1272_11186)"/>
<mask id="path-3-inside-2_1272_11186" fill="white">
<path d="M22.9969 17.5832C21.4601 15.6634 19.2236 14.4327 16.7794 14.1619L16.2689 18.7698C17.4909 18.9052 18.6092 19.5205 19.3776 20.4804L22.9969 17.5832Z"/>
</mask>
<path d="M22.9969 17.5832C21.4601 15.6634 19.2236 14.4327 16.7794 14.1619L16.2689 18.7698C17.4909 18.9052 18.6092 19.5205 19.3776 20.4804L22.9969 17.5832Z" fill="#047E2E" fill-opacity="0.15" stroke="#047E2E" stroke-width="2.39283" mask="url(#path-3-inside-2_1272_11186)"/>
<mask id="path-4-inside-3_1272_11186" fill="white">
<path d="M25.0305 23.3777C25.0305 21.6499 24.5477 19.9565 23.6366 18.4884L19.6975 20.933C20.153 21.6671 20.3944 22.5138 20.3944 23.3777H25.0305Z"/>
</mask>
<path d="M25.0305 23.3777C25.0305 21.6499 24.5477 19.9565 23.6366 18.4884L19.6975 20.933C20.153 21.6671 20.3944 22.5138 20.3944 23.3777H25.0305Z" fill="#047E2E" fill-opacity="0.15" stroke="#047E2E" stroke-width="2.39283" mask="url(#path-4-inside-3_1272_11186)"/>
</svg>
