<svg width="33" height="32" viewBox="0 0 33 32" fill="none" xmlns="http://www.w3.org/2000/svg">
<path d="M0.904297 4.43366H27.8649V10.7183L23.6924 11.2145V19.98H0.904297V4.43366Z" fill="#047E2E" fill-opacity="0.15"/>
<path d="M0.904297 4.43366H27.8649V10.7183L23.6924 11.2145V19.98H0.904297V4.43366Z" fill="#047E2E" fill-opacity="0.15"/>
<path d="M24.0134 13.3645H32.3583V23.6184H24.0134V13.3645Z" fill="#047E2E" fill-opacity="0.15"/>
<path d="M24.0134 13.3645H32.3583V23.6184H24.0134V13.3645Z" fill="#047E2E" fill-opacity="0.15"/>
<path d="M31.0745 10.0568H28.5068V4.59904C28.5068 4.2352 28.2179 3.9375 27.8649 3.9375H1.54622C1.19316 3.9375 0.904297 4.2352 0.904297 4.59904V22.4607C0.904297 22.8246 1.19316 23.1223 1.54622 23.1223H14.0636V26.0992H11.175C10.8219 26.0992 10.5331 26.3969 10.5331 26.7608C10.5331 27.1246 10.8219 27.4223 11.175 27.4223H18.2361C18.5892 27.4223 18.878 27.1246 18.878 26.7608C18.878 26.3969 18.5892 26.0992 18.2361 26.0992H15.3475V23.1223H23.3715V25.4377C23.3715 26.5326 24.2348 27.4223 25.2972 27.4223H31.0745C32.1369 27.4223 33.0002 26.5326 33.0002 25.4377V12.0414C33.0002 10.9466 32.1369 10.0568 31.0745 10.0568ZM23.3715 21.7992H2.18813V20.4761H23.3715V21.7992ZM23.3715 12.0414V19.153H2.18813V5.26059H27.223V10.0568H25.2972C24.2348 10.0568 23.3715 10.9466 23.3715 12.0414ZM31.7164 25.4377C31.7164 25.8015 31.4275 26.0992 31.0745 26.0992H25.2972C24.9442 26.0992 24.6553 25.8015 24.6553 25.4377V24.7762H31.7164V25.4377ZM31.7164 23.4531H24.6553V14.0261H31.7164V23.4531ZM31.7164 12.703H24.6553V12.0414C24.6553 11.6776 24.9442 11.3799 25.2972 11.3799H31.0745C31.4275 11.3799 31.7164 11.6776 31.7164 12.0414V12.703Z" fill="#047E2E"/>
<path d="M27.223 20.1883C27.2711 20.1883 27.3193 20.1784 27.3674 20.152L29.5371 19.0339C29.7746 18.9116 29.7746 18.5642 29.5371 18.4419L27.3674 17.3239C27.3193 17.3007 27.2711 17.2875 27.223 17.2875C27.0561 17.2875 26.902 17.4264 26.902 17.6182V19.8543C26.902 20.0461 27.0561 20.185 27.223 20.185V20.1883Z" fill="#047E2E"/>
<path d="M18.3709 11.9455L13.3864 9.3787C13.3351 9.35224 13.2837 9.3357 13.2323 9.32247C13.2163 9.31916 13.197 9.31916 13.181 9.31586C13.1521 9.31255 13.1264 9.30593 13.1008 9.30593C13.0943 9.30593 13.0847 9.30593 13.0783 9.30593C13.0622 9.30593 13.0494 9.30593 13.0334 9.30924C12.998 9.31255 12.966 9.31916 12.9339 9.32909C12.9178 9.3324 12.905 9.33901 12.8889 9.34232C12.8536 9.35555 12.8215 9.37209 12.7894 9.38863C12.7798 9.39524 12.7702 9.39855 12.7605 9.40517C12.7188 9.43163 12.6835 9.4614 12.6482 9.49778C12.6386 9.5077 12.6322 9.51763 12.6257 9.52424C12.6001 9.5507 12.5776 9.58047 12.5583 9.61355C12.5487 9.62678 12.5423 9.64332 12.5359 9.65655C12.5198 9.68963 12.507 9.72271 12.4941 9.75578C12.4877 9.77232 12.4845 9.78555 12.4813 9.80209C12.4685 9.85171 12.462 9.90463 12.462 9.96086V15.0978C12.462 15.154 12.4717 15.2069 12.4813 15.2565C12.4845 15.2731 12.4909 15.2863 12.4941 15.3028C12.5038 15.3392 12.5198 15.3723 12.5359 15.4021C12.5423 15.4153 12.5519 15.4318 12.5583 15.4451C12.5776 15.4781 12.6001 15.5079 12.6257 15.5344C12.6322 15.5443 12.6386 15.5542 12.6482 15.5608C12.6835 15.5972 12.7188 15.627 12.7605 15.6535C12.7702 15.6601 12.7798 15.6634 12.7894 15.67C12.8215 15.6898 12.8568 15.7064 12.8921 15.7196C12.9082 15.7262 12.921 15.7295 12.9371 15.7328C12.9692 15.7428 13.0045 15.7494 13.0366 15.7527C13.0526 15.7527 13.0654 15.756 13.0815 15.756C13.0879 15.756 13.0975 15.756 13.104 15.756C13.1296 15.756 13.1585 15.7494 13.1842 15.7461C13.2003 15.7461 13.2195 15.7461 13.2356 15.7395C13.2869 15.7295 13.3383 15.7097 13.3896 15.6832L18.3741 13.1164C18.5506 13.0238 18.663 12.8717 18.7079 12.6997C18.7817 12.4152 18.6694 12.0844 18.3741 11.9323L18.3709 11.9455Z" fill="#047E2E"/>
</svg>
