<svg width="32" height="32" viewBox="0 0 32 32" fill="none" xmlns="http://www.w3.org/2000/svg">
<g clip-path="url(#clip0_1272_11199)">
<path d="M21.6186 16.1586C21.6186 20.0855 18.3232 23.2689 14.2582 23.2689C10.1932 23.2689 6.89782 20.0855 6.89782 16.1586C6.89782 12.2316 10.1932 9.04824 14.2582 9.04824C18.3232 9.04824 21.6186 12.2316 21.6186 16.1586Z" fill="#047E2E" fill-opacity="0.15"/>
<path d="M29.2989 25.6929H15.2182V26.9856H29.2989V25.6929Z" fill="#047E2E"/>
<path d="M12.019 1.45312V8.56345C8.69081 9.54273 6.25869 12.6422 6.25869 16.3202C6.25869 18.4015 7.03953 20.2987 8.31639 21.7305L7.33394 22.7227C7.00113 22.4835 6.61391 22.3607 6.22669 22.3607C5.73386 22.3607 5.24424 22.5514 4.86982 22.9295L1.06163 26.7756C0.312791 27.5318 0.312791 28.76 1.06163 29.5195L1.51285 29.9752C1.88727 30.3533 2.38009 30.544 2.86972 30.544C3.35934 30.544 3.85217 30.3533 4.22659 29.9752L8.03478 26.1292C8.70681 25.4505 8.77081 24.3968 8.23959 23.6373L9.24764 22.6193C9.31484 22.6742 9.38844 22.7194 9.45885 22.7744V22.7873H9.47485C10.2301 23.3594 11.0877 23.8022 12.019 24.0769V30.2208H32.5V1.45312H12.019ZM7.13233 25.2113L3.32414 29.0573C3.16093 29.2222 2.97212 29.248 2.87292 29.248C2.83132 29.248 2.77371 29.2416 2.70971 29.2254C2.69051 29.2189 2.66811 29.2125 2.64891 29.206C2.62011 29.1963 2.5913 29.1834 2.5593 29.164C2.5497 29.1575 2.5401 29.1511 2.5337 29.1478C2.4953 29.1252 2.4601 29.0961 2.4217 29.0606L1.97047 28.6049C1.93207 28.5661 1.90007 28.5208 1.87447 28.4756C1.87127 28.4691 1.86807 28.4626 1.86487 28.4562C1.84247 28.4109 1.82327 28.3625 1.81047 28.314C1.75286 28.0974 1.80727 27.8615 1.97367 27.6934L5.78186 23.8474C5.94507 23.6826 6.13388 23.6567 6.23309 23.6567C6.27469 23.6567 6.33229 23.6632 6.3963 23.6793C6.4155 23.6858 6.4379 23.6923 6.4571 23.6987C6.4859 23.7084 6.5147 23.7214 6.5467 23.7407C6.5563 23.7472 6.5659 23.7537 6.5723 23.7569C6.61071 23.7795 6.64591 23.8086 6.68431 23.8442L7.13553 24.2999C7.17393 24.3387 7.20594 24.3839 7.23154 24.4292C7.23474 24.4356 7.23794 24.4421 7.24114 24.4485C7.26354 24.4938 7.28274 24.5423 7.29554 24.5908C7.35314 24.8073 7.29874 25.0432 7.13233 25.2113ZM9.45885 15.997V21.0453C9.38204 20.9677 9.30204 20.8902 9.23164 20.8094C8.18198 19.6103 7.53875 18.0428 7.53875 16.3202C7.53875 12.5775 10.5533 9.53303 14.2591 9.53303C17.9649 9.53303 20.9794 12.5775 20.9794 16.3202C20.9794 18.324 20.109 20.1209 18.7393 21.3653V12.4418H14.8991V23.075C14.6879 23.0944 14.4767 23.1073 14.2591 23.1073C13.9327 23.1073 13.6127 23.0782 13.299 23.0329V15.997H9.45885ZM25.4596 7.91705V15.997H24.1796V10.5026H22.8995V15.997H22.2499C22.2115 14.9886 21.9907 14.0287 21.6195 13.1496V8.88664H20.3394V11.0714C19.3409 9.89178 18.0129 9.00946 16.4992 8.56345V6.30107H28.0198V15.997H26.7397V7.91705H25.4596ZM16.1792 22.8229V13.7346H17.4592V22.2864C17.056 22.5094 16.6272 22.6871 16.1792 22.8196V22.8229ZM12.019 22.7162C11.5678 22.5546 11.1389 22.3413 10.7389 22.0892V17.293H12.019V22.7162ZM31.2199 28.9281H13.299V24.3387C13.6159 24.3774 13.9327 24.4033 14.2591 24.4033C15.3727 24.4033 16.4352 24.1738 17.3984 23.7569H26.4197V22.4641H19.4561C20.0962 21.9115 20.653 21.2554 21.0946 20.5249H28.3398V19.2322H21.7219C21.9555 18.6181 22.1187 17.9685 22.1987 17.293H29.2998V5.00829H15.2191V8.30166C14.9055 8.26287 14.5855 8.24025 14.2591 8.24025C13.9327 8.24025 13.6127 8.26287 13.299 8.30166V2.74591H31.2199V28.9281Z" fill="#047E2E"/>
<path d="M22.2645 12.3909L17.2949 9.90768C16.8693 9.69648 16.3701 10.0037 16.3701 10.4805V15.4501C16.3701 15.9269 16.8693 16.2341 17.2949 16.0229L22.2645 13.5397C22.7349 13.3029 22.7349 12.6309 22.2645 12.3941V12.3909Z" fill="#047E2E"/>
</g>
<defs>
<clipPath id="clip0_1272_11199">
<rect width="32" height="32" fill="white"/>
</clipPath>
</defs>
</svg>
