<svg width="32" height="32" viewBox="0 0 32 32" fill="none" xmlns="http://www.w3.org/2000/svg">
<mask id="mask0_1272_11172" style="mask-type:luminance" maskUnits="userSpaceOnUse" x="0" y="0" width="33" height="32">
<path d="M32.001 0H0.000976562V32H32.001V0Z" fill="white"/>
</mask>
<g mask="url(#mask0_1272_11172)">
<path d="M7.5918 6.70784C7.5918 6.39802 7.84529 6.14453 8.15511 6.14453H24.4912C24.801 6.14453 25.0545 6.39802 25.0545 6.70784V15.6758L16.3231 22.3116L7.5918 15.6758V6.70784Z" fill="#047E2E" fill-opacity="0.15"/>
<path d="M15.4779 8.41016H9.84473V12.9167H15.4779V8.41016Z" fill="white"/>
<path d="M14.3512 11.79H10.9714V9.53678H14.3512V11.79ZM15.4779 8.41016H9.84473V12.9167H15.4779V8.41016Z" fill="#047E2E"/>
<path d="M22.2372 9.53678H17.4491C17.1392 9.53678 16.8857 9.28329 16.8857 8.97347C16.8857 8.66365 17.1392 8.41016 17.4491 8.41016H22.2372C22.547 8.41016 22.8005 8.66365 22.8005 8.97347C22.8005 9.28329 22.547 9.53678 22.2372 9.53678Z" fill="#047E2E"/>
<path d="M22.2372 12.9118H17.4491C17.1392 12.9118 16.8857 12.6583 16.8857 12.3485C16.8857 12.0386 17.1392 11.7852 17.4491 11.7852H22.2372C22.547 11.7852 22.8005 12.0386 22.8005 12.3485C22.8005 12.6583 22.547 12.9118 22.2372 12.9118Z" fill="#047E2E"/>
<path d="M22.2378 16.2946H10.4082C10.0984 16.2946 9.84491 16.0411 9.84491 15.7313C9.84491 15.4215 10.0984 15.168 10.4082 15.168H22.2378C22.5476 15.168 22.8011 15.4215 22.8011 15.7313C22.8011 16.0411 22.5476 16.2946 22.2378 16.2946Z" fill="#047E2E"/>
<path d="M14.3516 9.53516H10.9717V11.7884H14.3516V9.53516Z" fill="white"/>
<path d="M26.181 9.26357V6.71739C26.181 5.78229 25.4205 5.02745 24.4911 5.02745H20.4127L16.3231 1.91797L12.2334 5.02745H8.15502C7.22555 5.02745 6.46508 5.78229 6.46508 6.71739V9.26357L2.24023 12.4744V28.3937C2.24023 29.3288 3.00071 30.0836 3.93017 30.0836H28.7159C29.1384 30.0836 29.5215 29.9259 29.8144 29.6724C29.8144 29.6724 29.82 29.6667 29.8257 29.6611C30.1805 29.3513 30.4002 28.9006 30.4002 28.3937V12.4744L26.1754 9.26357H26.181ZM26.181 10.6831L28.9131 12.7561L26.181 14.8291V10.6775V10.6831ZM16.3231 3.33188L18.5538 5.02745H14.098L16.3287 3.33188H16.3231ZM7.5917 9.82688V6.71739C7.5917 6.40757 7.8452 6.15408 8.15502 6.15408H24.4911C24.8009 6.15408 25.0544 6.40757 25.0544 6.71739V15.6853L16.3231 22.3212L7.5917 15.6853V9.82124V9.82688ZM6.46508 10.6831V14.8347L3.73301 12.7617L6.46508 10.6887V10.6831ZM3.36686 28.3824V13.8884L12.9037 21.1326L3.36686 28.3824ZM4.47659 28.957L13.8332 21.848L16.3231 23.7407L18.8129 21.848L28.1695 28.957H4.47659ZM29.2792 28.3824L19.7424 21.1382L29.2792 13.894V28.388V28.3824Z" fill="#047E2E"/>
</g>
</svg>
