<svg width="32" height="32" viewBox="0 0 32 32" fill="none" xmlns="http://www.w3.org/2000/svg">
<path d="M28.8008 7.68016H25.2808V4.16016H20.8008V12.4802H25.2808V8.96016H28.8008C29.1528 8.96016 29.4408 8.67216 29.4408 8.32016C29.4408 7.96816 29.1528 7.68016 28.8008 7.68016ZM24.0008 11.2002H22.0808V5.44016H24.0008V11.2002Z" fill="#047E2E"/>
<path d="M18.8805 8.95969H3.20055C2.84855 8.95969 2.56055 8.67169 2.56055 8.31969C2.56055 7.96769 2.84855 7.67969 3.20055 7.67969H18.8805C19.2325 7.67969 19.5205 7.96769 19.5205 8.31969C19.5205 8.67169 19.2325 8.95969 18.8805 8.95969Z" fill="#047E2E"/>
<path d="M28.8009 23.0395H21.4409V19.5195H16.9609V27.8395H21.4409V24.3195H28.8009C29.1529 24.3195 29.4409 24.0315 29.4409 23.6795C29.4409 23.3275 29.1529 23.0395 28.8009 23.0395ZM20.1609 26.5595H18.2409V20.7995H20.1609V26.5595Z" fill="#047E2E"/>
<path d="M15.0405 24.323H3.20055C2.84855 24.323 2.56055 24.035 2.56055 23.683C2.56055 23.331 2.84855 23.043 3.20055 23.043H15.0405C15.3925 23.043 15.6805 23.331 15.6805 23.683C15.6805 24.035 15.3925 24.323 15.0405 24.323Z" fill="#047E2E"/>
<path d="M28.8006 15.3598H14.0806V11.8398H9.60059V20.1598H14.0806V16.6398H28.8006C29.1526 16.6398 29.4406 16.3518 29.4406 15.9998C29.4406 15.6478 29.1526 15.3598 28.8006 15.3598ZM12.8006 18.8798H10.8806V13.1198H12.8006V18.8798Z" fill="#047E2E"/>
<path d="M7.68055 16.6394H3.20055C2.84855 16.6394 2.56055 16.3514 2.56055 15.9994C2.56055 15.6474 2.84855 15.3594 3.20055 15.3594H7.68055C8.03255 15.3594 8.32055 15.6474 8.32055 15.9994C8.32055 16.3514 8.03255 16.6394 7.68055 16.6394Z" fill="#047E2E"/>
<path d="M24.0008 5.44141H22.0808V11.2014H24.0008V5.44141Z" fill="#047E2E" fill-opacity="0.15"/>
<path d="M12.8009 13.1211H10.8809V18.8811H12.8009V13.1211Z" fill="#047E2E" fill-opacity="0.15"/>
<path d="M20.1602 20.8008H18.2402V26.5608H20.1602V20.8008Z" fill="#047E2E" fill-opacity="0.15"/>
</svg>
