<svg width="32" height="32" viewBox="0 0 32 32" fill="none" xmlns="http://www.w3.org/2000/svg">
<path d="M29.5207 3.85156H8.4007C7.3415 3.85156 6.4807 4.71236 6.4807 5.77156V6.09156H5.5207C4.4615 6.09156 3.6007 6.95236 3.6007 8.01156V8.97156H2.6407C1.5815 8.97156 0.720703 9.83236 0.720703 10.8916V25.6116C0.720703 26.6708 1.5815 27.5316 2.6407 27.5316H24.4007C25.4599 27.5316 26.3207 26.6708 26.3207 25.6116V24.6516H27.2807C28.3399 24.6516 29.2007 23.7908 29.2007 22.7316V21.7716H29.5207C30.5799 21.7716 31.4407 20.9108 31.4407 19.8516V5.77156C31.4407 4.71236 30.5799 3.85156 29.5207 3.85156ZM25.0407 25.6116C25.0407 25.9636 24.7527 26.2516 24.4007 26.2516H2.6407C2.2887 26.2516 2.0007 25.9636 2.0007 25.6116V10.8916C2.0007 10.5396 2.2887 10.2516 2.6407 10.2516H3.6007V22.7316C3.6007 23.7908 4.4615 24.6516 5.5207 24.6516H25.0407V25.6116ZM27.9207 22.7316C27.9207 23.0836 27.6327 23.3716 27.2807 23.3716H5.5207C5.1687 23.3716 4.8807 23.0836 4.8807 22.7316V8.01156C4.8807 7.65956 5.1687 7.37156 5.5207 7.37156H6.4807V19.8516C6.4807 20.9108 7.3415 21.7716 8.4007 21.7716H27.9207V22.7316ZM30.1607 19.8516C30.1607 20.2036 29.8727 20.4916 29.5207 20.4916H8.4007C8.0487 20.4916 7.7607 20.2036 7.7607 19.8516V5.77156C7.7607 5.41956 8.0487 5.13156 8.4007 5.13156H29.5207C29.8727 5.13156 30.1607 5.41956 30.1607 5.77156V19.8516Z" fill="#047E2E"/>
<path d="M22.2645 12.3909L17.2949 9.90768C16.8693 9.69648 16.3701 10.0037 16.3701 10.4805V15.4501C16.3701 15.9269 16.8693 16.2341 17.2949 16.0229L22.2645 13.5397C22.7349 13.3029 22.7349 12.6309 22.2645 12.3941V12.3909Z" fill="#047E2E"/>
</svg>
