<svg width="32" height="32" viewBox="0 0 32 32" fill="none" xmlns="http://www.w3.org/2000/svg">
<path fill-rule="evenodd" clip-rule="evenodd" d="M16.7672 15.2279L16.8139 7.71312C16.8163 7.32451 16.5032 7.01144 16.1146 7.01385C15.726 7.01627 15.409 7.33326 15.4066 7.72187L15.3599 15.2367L7.60465 15.2849C7.21604 15.2873 6.89905 15.6043 6.89663 15.9929C6.89422 16.3815 7.20729 16.6946 7.5959 16.6922L15.3511 16.644L15.3029 24.405C15.3005 24.7936 15.6136 25.1067 16.0022 25.1043C16.3908 25.1019 16.7078 24.7849 16.7102 24.3963L16.7584 16.6352L24.2791 16.5885C24.6677 16.5861 24.9847 16.2691 24.9871 15.8805C24.9895 15.4918 24.6764 15.1788 24.2878 15.1812L16.7672 15.2279Z" fill="#047E2E"/>
</svg>
