<svg width="11" height="15" viewBox="0 0 11 15" fill="none" xmlns="http://www.w3.org/2000/svg">
<path d="M4.16634 11.4987C3.79967 11.4987 3.48579 11.3681 3.22467 11.107C2.96356 10.8459 2.83301 10.532 2.83301 10.1654V9.33203C2.19967 8.8987 1.70801 8.34314 1.35801 7.66536C1.00801 6.98759 0.833008 6.26536 0.833008 5.4987C0.833008 4.1987 1.28579 3.09592 2.19134 2.19036C3.0969 1.28481 4.19967 0.832031 5.49967 0.832031C6.79967 0.832031 7.90245 1.28481 8.80801 2.19036C9.71356 3.09592 10.1663 4.1987 10.1663 5.4987C10.1663 6.26536 9.99134 6.98481 9.64134 7.65703C9.29134 8.32925 8.79967 8.88759 8.16634 9.33203V10.1654C8.16634 10.532 8.03579 10.8459 7.77467 11.107C7.51356 11.3681 7.19967 11.4987 6.83301 11.4987H4.16634ZM4.16634 10.1654H6.83301V8.63203L7.39967 8.23203C7.85523 7.92092 8.20801 7.5237 8.45801 7.04036C8.70801 6.55703 8.83301 6.04314 8.83301 5.4987C8.83301 4.57648 8.50801 3.79036 7.85801 3.14036C7.20801 2.49036 6.4219 2.16536 5.49967 2.16536C4.57745 2.16536 3.79134 2.49036 3.14134 3.14036C2.49134 3.79036 2.16634 4.57648 2.16634 5.4987C2.16634 6.04314 2.29134 6.55703 2.54134 7.04036C2.79134 7.5237 3.14412 7.92092 3.59967 8.23203L4.16634 8.63203V10.1654ZM4.16634 14.1654C3.97745 14.1654 3.81912 14.1015 3.69134 13.9737C3.56356 13.8459 3.49967 13.6876 3.49967 13.4987V12.832H7.49967V13.4987C7.49967 13.6876 7.43579 13.8459 7.30801 13.9737C7.18023 14.1015 7.0219 14.1654 6.83301 14.1654H4.16634Z" fill="#047E2E"/>
</svg>
