<svg width="32" height="32" viewBox="0 0 32 32" fill="none" xmlns="http://www.w3.org/2000/svg">
<g id="NEW_SMALL_CNBC_l8NIGHT">
<path id="Vector" d="M25.5244 14.1498L26.0977 14.0431C26.1777 14.0298 26.2177 14.1231 26.1644 14.1764L25.751 14.5898C25.4577 14.8831 25.391 15.3364 25.591 15.6964L25.871 16.2164C25.911 16.2831 25.831 16.3631 25.7644 16.3231L25.2444 16.0564C24.871 15.8698 24.431 15.9498 24.1377 16.2431L23.7377 16.6698C23.7377 16.6698 23.591 16.6698 23.6044 16.6031L23.6977 16.0298C23.7644 15.6164 23.551 15.2164 23.1777 15.0431L22.6444 14.7898C22.5777 14.7498 22.591 14.6564 22.671 14.6431L23.2444 14.5498C23.6577 14.4831 23.9644 14.1631 24.031 13.7498L24.111 13.1631C24.111 13.0831 24.231 13.0698 24.2577 13.1364L24.5244 13.6564C24.711 14.0298 25.1244 14.2298 25.5244 14.1498Z" fill="white" stroke="white" stroke-miterlimit="10"/>
<path id="Vector_2" d="M21.5266 8.33549L22.5533 8.78882C22.62 8.81549 22.62 8.92216 22.54 8.93549L21.4333 9.16216C21.0333 9.24216 20.7266 9.57549 20.6866 9.98882L20.58 11.1088C20.58 11.1888 20.4733 11.2022 20.4333 11.1355L19.8866 10.1622C19.6866 9.80216 19.2733 9.61549 18.86 9.70882L17.7666 9.94882C17.6866 9.96215 17.6333 9.86882 17.6866 9.81549L18.4466 8.98882C18.7266 8.68216 18.78 8.22882 18.5666 7.88215L17.9933 6.90882C17.9533 6.84216 18.02 6.76215 18.1 6.78882L19.1266 7.25549C19.5 7.42882 19.94 7.33549 20.22 7.02882L20.9666 6.18882C20.9666 6.18882 21.1133 6.17549 21.1 6.25549L20.9666 7.37549C20.9133 7.78882 21.14 8.17549 21.5266 8.34882V8.33549Z" fill="white" stroke="white" stroke-miterlimit="10"/>
<path id="Vector_3" d="M16.9934 25.4825C15.2361 25.5809 13.347 25.2327 11.5286 24.2396C9.55855 23.1614 8.00306 21.379 7.19147 19.2878C5.32098 14.5049 7.26296 9.36156 11.3873 6.94038C11.8531 6.67391 12.4435 6.96133 12.4866 7.49308C13.2329 15.3303 16.1562 19.3597 23.5138 21.0174C24.0412 21.1347 24.1865 21.821 23.8346 22.2146C22.0871 24.1554 19.6559 25.3333 17.0067 25.4817L16.9934 25.4825Z" fill="white" fill-opacity="0.15" stroke="white" stroke-width="2" stroke-miterlimit="10"/>
</g>
</svg>
