<svg width="12" height="12" viewBox="0 0 12 12" fill="none" xmlns="http://www.w3.org/2000/svg">
<path d="M2.48732 1C2.25467 1 2.06662 1.18983 2.06662 1.42373C2.06662 1.65762 2.25467 1.84746 2.48732 1.84746H9.49261L1.12337 10.2767C0.958878 10.4423 0.958878 10.7102 1.12337 10.8758C1.20541 10.9585 1.31311 11 1.4208 11C1.52851 11 1.63623 10.9585 1.71827 10.8758L10.1586 2.37496V9.57373C10.1586 9.80762 10.3467 9.99746 10.5793 9.99746C10.812 9.99746 11 9.80762 11 9.57373V1.42373C11 1.18983 10.812 1 10.5793 1H2.48732Z" fill="#101418" stroke="#101418" stroke-width="0.714286"/>
</svg>
