<svg width="12" height="12" viewBox="0 0 12 12" fill="none" xmlns="http://www.w3.org/2000/svg">
<path d="M2.48732 1.25635C2.25467 1.25635 2.06662 1.44617 2.06662 1.68008C2.06662 1.91397 2.25467 2.10381 2.48732 2.10381H9.49261L1.12337 10.533C0.958878 10.6987 0.958878 10.9665 1.12337 11.1322C1.20541 11.2148 1.31311 11.2563 1.4208 11.2563C1.52851 11.2563 1.63623 11.2148 1.71827 11.1322L10.1586 2.63131V9.83008C10.1586 10.064 10.3467 10.2538 10.5793 10.2538C10.812 10.2538 11 10.064 11 9.83008V1.68008C11 1.44617 10.812 1.25635 10.5793 1.25635H2.48732Z" fill="white" stroke="white" stroke-width="0.714286"/>
</svg>
