<svg width="255" height="89" viewBox="0 0 255 89" fill="none" xmlns="http://www.w3.org/2000/svg">
<g clip-path="url(#clip0_1272_11110)">
<path d="M0.368164 89.0008V-0.000976562H89.1775V88.9876H0.368164V89.0008Z" fill="white"/>
<path d="M30.33 53.8037H33.6368L40.448 62.9402V53.8037H43.544V67.931H40.2372L33.426 58.7813V67.931H30.33V53.8037Z" fill="#047E2E"/>
<path d="M59.296 63.4801C59.296 67.3222 56.2263 67.9295 54.3028 67.9295H46.1083V53.8154H54.2896C56.7928 53.8154 58.8085 55.2414 58.8085 57.9216C58.8085 59.2419 57.8731 59.9813 57.1749 60.3377C58.3342 60.9187 59.296 61.7901 59.296 63.4933V63.4801ZM49.1121 56.456V59.1231H53.9471C54.7376 59.1231 55.6203 58.793 55.6203 57.8028C55.6203 56.8125 54.9352 56.456 53.8285 56.456H49.1121ZM56.1209 63.4801C56.1209 62.1202 54.9879 61.7769 53.8944 61.7769H49.1121V65.1436H53.9998C54.8957 65.1436 56.1077 64.8268 56.1077 63.4801H56.1209Z" fill="#047E2E"/>
<path d="M74.9212 65.619C73.3798 66.9525 71.7066 68.2992 68.413 68.2992C64.0391 68.2728 60.6532 64.8797 60.6532 60.8395C60.6795 56.6806 64.2103 53.4326 68.4657 53.4326C72.1545 53.4326 74.1439 55.8092 74.4074 56.0732L72.0755 58.4102C71.5749 57.8952 70.4682 56.7202 68.4393 56.7202C65.9625 56.7202 63.9468 58.5818 63.9468 60.8659C63.9468 62.8596 65.6595 65.0117 68.4262 65.0117C70.6263 65.0117 71.4431 64.2855 72.8001 63.1501L74.9344 65.6322L74.9212 65.619Z" fill="#047E2E"/>
<path d="M28.9153 65.619C27.3739 66.9525 25.7008 68.2992 22.4071 68.2992C18.0332 68.2728 14.6473 64.8797 14.6473 60.8395C14.6737 56.6806 18.2045 53.4326 22.4598 53.4326C26.1487 53.4326 28.138 55.8092 28.4015 56.0732L26.0696 58.4102C25.569 57.8952 24.4623 56.7202 22.4335 56.7202C19.9567 56.7202 17.941 58.5818 17.941 60.8659C17.941 62.8596 19.6537 65.0117 22.4203 65.0117C24.6204 65.0117 25.4373 64.2855 26.7942 63.1501L28.9285 65.6322L28.9153 65.619Z" fill="#047E2E"/>
<path d="M55.6758 27.9489L48.3112 44.8092L46.2033 30.1538C45.9398 28.1602 49.3125 26.9323 49.3125 26.9323C48.9963 26.2457 47.9292 26.2589 47.9292 26.2589H45.6368C45.2679 22.6545 48.5352 20.0271 52.066 20.8325C55.5309 21.6115 56.7824 25.3875 55.6626 27.9357L55.6758 27.9489Z" fill="#047E2E"/>
<path d="M42.0003 50.2658L27.6401 40.6803C23.9907 38.2378 20.3677 40.7332 19.6036 43.3077C18.4706 47.1102 21.0001 50.279 24.9788 50.279H42.0003V50.2658Z" fill="#047E2E"/>
<path d="M43.8824 26.4953C44.4094 22.772 41.0894 20.0126 37.4796 20.8312C34.0147 21.6101 32.7631 25.3862 33.883 27.9344L41.2475 44.7947L43.8824 26.4821V26.4953Z" fill="#047E2E"/>
<path d="M40.6591 47.5839L33.5976 31.4366C31.9376 27.6869 27.5636 27.2248 25.1395 29.4165C23.44 30.9613 22.1094 35.173 25.93 37.7344L40.6723 47.5839H40.6591Z" fill="#047E2E"/>
<path d="M64.5769 50.2597C68.5556 50.2597 71.0719 47.0909 69.9521 43.2885C69.188 40.7139 65.5781 38.2185 61.9156 40.6611L47.5554 50.2465H64.5769V50.2597Z" fill="#047E2E"/>
<path d="M63.644 37.7344C67.4515 35.1863 66.134 30.9745 64.4345 29.4165C62.0104 27.2248 57.6364 27.6869 55.9765 31.4366L48.9149 47.5839L63.6572 37.7344H63.644Z" fill="#047E2E"/>
<path d="M255.004 -0.000976562H93.8319V89.0008H255.004V-0.000976562Z" fill="white"/>
<path d="M122.348 27.2373H135.917C143.98 27.2373 149 31.8188 149 38.7768V38.8824C149 46.6194 142.808 50.6595 135.232 50.6595H128.395V61.7501H122.348V27.2373ZM135.43 45.1803C140.001 45.1803 142.86 42.6189 142.86 39.0144V38.922C142.86 34.8819 139.962 32.7562 135.43 32.7562H128.395V45.1803H135.43Z" fill="#047E2E"/>
<path d="M156.689 27.2373H172.038C176.372 27.2373 179.758 28.518 181.971 30.6833C183.789 32.5581 184.83 35.1195 184.83 38.1298V38.2354C184.83 43.8996 181.431 47.3059 176.662 48.6923L185.963 61.7501H178.783L170.325 49.7221H162.75V61.7501H156.703V27.2373H156.689ZM171.59 44.3485C175.924 44.3485 178.678 42.0775 178.678 38.5787V38.4731C178.678 34.7762 176.016 32.7562 171.55 32.7562H162.736V44.3485H171.59Z" fill="#047E2E"/>
<path d="M189.977 44.5997V44.4941C189.977 34.7766 197.46 26.6436 208.026 26.6436C218.592 26.6436 225.983 34.6842 225.983 44.3884V44.4809C225.983 54.1983 218.5 62.3314 207.934 62.3314C197.368 62.3314 189.977 54.2907 189.977 44.5865V44.5997ZM219.646 44.5997V44.4941C219.646 37.7869 214.772 32.2152 207.934 32.2152C201.097 32.2152 196.327 37.6813 196.327 44.3884V44.4809C196.327 51.188 201.202 56.7069 208.04 56.7069C214.877 56.7069 219.646 51.2804 219.646 44.5733V44.5997Z" fill="#047E2E"/>
</g>
<defs>
<clipPath id="clip0_1272_11110">
<rect width="254.149" height="89.0018" fill="white" transform="translate(0.370972 -0.000976562)"/>
</clipPath>
</defs>
</svg>
