<svg width="11" height="13" viewBox="0 0 11 13" fill="none" xmlns="http://www.w3.org/2000/svg">
<path d="M10.4005 7.35293C10.534 7.2195 10.5329 7.00278 10.3988 6.86863C10.2646 6.73449 10.0479 6.73347 9.91449 6.8669L5.89686 10.8845L5.86247 1.25037C5.86178 1.06102 5.70819 0.907422 5.51883 0.906741C5.42439 0.906398 5.3388 0.944352 5.27704 1.00612C5.21527 1.06789 5.1773 1.15348 5.17764 1.24793L5.21237 10.964L1.08378 6.83536C0.949634 6.70122 0.732897 6.7002 0.59947 6.83363C0.466038 6.96706 0.467074 7.18378 0.601215 7.31792L5.27536 11.9921C5.40951 12.1262 5.62621 12.1272 5.75965 11.9938L10.4005 7.35293Z" fill="#101418" stroke="#101418" stroke-width="0.579337"/>
</svg>
