<svg width="32" height="32" viewBox="0 0 32 32" fill="none" xmlns="http://www.w3.org/2000/svg">
<g id="SMALL_CNBC_NOON">
<g id="Group">
<path id="Vector" d="M16 22.1214C12.621 22.1214 9.87848 19.3789 9.87848 15.9999C9.87848 12.621 12.621 9.87842 16 9.87842C19.3789 9.87842 22.1215 12.621 22.1215 15.9999C22.1215 19.3789 19.3789 22.1214 16 22.1214Z" fill="white" fill-opacity="0.2"/>
<path id="Vector_2" d="M16 11.015C18.7577 11.015 20.9851 13.2424 20.9851 16.0001C20.9851 18.7578 18.7577 20.9852 16 20.9852C13.2423 20.9852 11.0149 18.7578 11.0149 16.0001C11.0149 13.2424 13.2423 11.015 16 11.015ZM16 8.74219C11.9998 8.74219 8.74207 11.9999 8.74207 16.0001C8.74207 20.0003 11.9998 23.258 16 23.258C20.0002 23.258 23.2579 20.0003 23.2579 16.0001C23.2579 11.9999 20.0002 8.74219 16 8.74219Z" fill="white"/>
</g>
<g id="Group_2">
<g id="_x3C_Radial_Repeat_x3E_">
<path id="Vector_3" d="M16 28.8492V25.9399" stroke="white" stroke-width="2.13333" stroke-miterlimit="10" stroke-linecap="round"/>
</g>
<g id="_x3C_Radial_Repeat_x3E__2">
<path id="Vector_4" d="M3.15094 16H6.06017" stroke="white" stroke-width="2.13333" stroke-miterlimit="10" stroke-linecap="round"/>
</g>
<g id="_x3C_Radial_Repeat_x3E__3">
<path id="Vector_5" d="M16 3.15088V6.06011" stroke="white" stroke-width="2.13333" stroke-miterlimit="10" stroke-linecap="round"/>
</g>
<g id="_x3C_Radial_Repeat_x3E__4">
<path id="Vector_6" d="M28.8491 16H25.9399" stroke="white" stroke-width="2.13333" stroke-miterlimit="10" stroke-linecap="round"/>
</g>
</g>
<g id="Group_3">
<g id="_x3C_Radial_Repeat_x3E__5">
<path id="Vector_7" d="M7.27234 24.7278L8.96939 23.0308" stroke="white" stroke-width="2.13333" stroke-miterlimit="10" stroke-linecap="round"/>
</g>
<g id="_x3C_Radial_Repeat_x3E__6">
<path id="Vector_8" d="M7.27234 7.27246L8.96939 8.96951" stroke="white" stroke-width="2.13333" stroke-miterlimit="10" stroke-linecap="round"/>
</g>
<g id="_x3C_Radial_Repeat_x3E__7">
<path id="Vector_9" d="M24.7277 7.27246L23.0306 8.96951" stroke="white" stroke-width="2.13333" stroke-miterlimit="10" stroke-linecap="round"/>
</g>
<g id="_x3C_Radial_Repeat_x3E__8">
<path id="Vector_10" d="M24.7277 24.7278L23.0306 23.0308" stroke="white" stroke-width="2.13333" stroke-miterlimit="10" stroke-linecap="round"/>
</g>
</g>
</g>
</svg>
