<svg width="32" height="32" viewBox="0 0 32 32" fill="none" xmlns="http://www.w3.org/2000/svg">
<g id="SMALL_CNBC_EVENING" clip-path="url(#clip0_1275_18794)">
<path id="Vector" d="M3.29108 23.2944H28.7089" stroke="white" stroke-width="2" stroke-miterlimit="10" stroke-linecap="round"/>
<mask id="mask0_1275_18794" style="mask-type:luminance" maskUnits="userSpaceOnUse" x="-2" y="0" width="36" height="21">
<g id="clippath">
<path id="Vector_2" d="M-1.39466 20.1543L33.3947 20.1543V0.802742L-1.39466 0.802742V20.1543Z" fill="white"/>
</g>
</mask>
<g mask="url(#mask0_1275_18794)">
<g id="Group">
<g id="Group_2">
<g id="Group_3">
<path id="Vector_3" d="M10.9556 19.1397L10.5062 18.7483C10.2743 18.5019 10.1438 18.154 10.1583 17.8206C10.2743 14.675 12.8545 12.1963 16.0145 12.1963C19.1746 12.1963 21.7403 14.6605 21.8707 17.8206V18.2844L21.5083 18.7483C21.2764 18.9947 20.943 19.1397 20.5951 19.1397H10.9701H10.9556Z" fill="white" fill-opacity="0.2"/>
<path id="Vector_4" d="M16 13.2832C18.5657 13.2832 20.6676 15.3126 20.7691 17.8638C20.7691 17.9653 20.6821 18.0523 20.5806 18.0523H11.4194C11.318 18.0523 11.231 17.9653 11.231 17.8638C11.3325 15.3126 13.4198 13.2832 16 13.2832ZM16 11.1089C12.2602 11.1089 9.2161 14.037 9.07115 17.7768C9.04216 18.4146 9.28858 19.0379 9.72345 19.5018C10.1728 19.9657 10.7816 20.2266 11.4194 20.2266H20.5806C21.2184 20.2266 21.8417 19.9657 22.2766 19.5018C22.726 19.0379 22.9579 18.4146 22.9289 17.7768C22.7839 14.037 19.7399 11.1089 16 11.1089Z" fill="white"/>
</g>
<g id="Group_4">
<g id="_x3C_Radial_Repeat_x3E_">
<path id="Vector_5" d="M16 5.76025V8.5434" stroke="white" stroke-width="2" stroke-miterlimit="10" stroke-linecap="round"/>
</g>
<g id="_x3C_Radial_Repeat_x3E__2">
<path id="Vector_6" d="M28.2922 18.0522H25.5091" stroke="white" stroke-width="2" stroke-miterlimit="10" stroke-linecap="round"/>
</g>
<g id="_x3C_Radial_Repeat_x3E__3">
<path id="Vector_7" d="M3.70782 18.0522H6.49097" stroke="white" stroke-width="2" stroke-miterlimit="10" stroke-linecap="round"/>
</g>
</g>
<g id="Group_5">
<g id="_x3C_Radial_Repeat_x3E__4">
<path id="Vector_8" d="M24.3494 9.70312L22.7259 11.3266" stroke="white" stroke-width="2" stroke-miterlimit="10" stroke-linecap="round"/>
</g>
<g id="_x3C_Radial_Repeat_x3E__5">
<path id="Vector_9" d="M7.65057 9.70312L9.27408 11.3266" stroke="white" stroke-width="2" stroke-miterlimit="10" stroke-linecap="round"/>
</g>
</g>
</g>
</g>
</g>
</g>
<defs>
<clipPath id="clip0_1275_18794">
<rect width="32" height="32" fill="white"/>
</clipPath>
</defs>
</svg>
