<svg width="16" height="16" viewBox="0 0 16 16" fill="none" xmlns="http://www.w3.org/2000/svg">
<path d="M2.83225 1C2.50654 1 2.24326 1.26576 2.24326 1.59322C2.24326 1.92067 2.50654 2.18644 2.83225 2.18644H12.6397L0.922713 13.9873C0.692429 14.2193 0.692429 14.5942 0.922713 14.8262C1.03757 14.9419 1.18835 15 1.33912 15C1.48992 15 1.64073 14.9419 1.75558 14.8262L13.572 2.92495V13.0032C13.572 13.3307 13.8353 13.5964 14.161 13.5964C14.4868 13.5964 14.75 13.3307 14.75 13.0032V1.59322C14.75 1.26576 14.4868 1 14.161 1H2.83225Z" fill="white" stroke="white"/>
</svg>
